<?xml version="1.0" encoding="utf-8"?>
<!-- Generator: Adobe Illustrator 18.1.1, SVG Export Plug-In . SVG Version: 6.00 Build 0)  -->
<svg version="1.1" id="Layer_1" xmlns="http://www.w3.org/2000/svg" xmlns:xlink="http://www.w3.org/1999/xlink" x="0px" y="0px"
	 viewBox="-414 413.9 12 14" enable-background="new -414 413.9 12 14" xml:space="preserve">
<path opacity="0.65" fill="#FFFFFF" d="M-408,414.9c1.1,0,2.1,0.3,3,0.8c0.9,0.5,1.6,1.3,2.2,2.2c0.5,0.9,0.8,1.9,0.8,3
	c0,1.1-0.3,2.1-0.8,3c-0.5,0.9-1.3,1.6-2.2,2.2c-0.9,0.5-1.9,0.8-3,0.8s-2.1-0.3-3-0.8c-0.9-0.5-1.6-1.3-2.2-2.2
	c-0.5-0.9-0.8-1.9-0.8-3c0-1.1,0.3-2.1,0.8-3c0.5-0.9,1.3-1.6,2.2-2.2C-410.1,415.2-409.1,414.9-408,414.9z M-405,421.3
	c0.2-0.1,0.2-0.2,0.2-0.4c0-0.2-0.1-0.3-0.2-0.4l-4.2-2.5c-0.2-0.1-0.3-0.1-0.5,0c-0.2,0.1-0.2,0.2-0.2,0.4v5c0,0.2,0.1,0.3,0.2,0.4
	c0.1,0,0.2,0.1,0.2,0.1c0.1,0,0.2,0,0.2-0.1L-405,421.3z"/>
</svg>
