<?xml version="1.0" encoding="utf-8"?>
<!-- Generator: Adobe Illustrator 18.1.1, SVG Export Plug-In . SVG Version: 6.00 Build 0)  -->
<svg version="1.1" id="Layer_1" xmlns="http://www.w3.org/2000/svg" xmlns:xlink="http://www.w3.org/1999/xlink" x="0px" y="0px"
	 viewBox="-412 412.9 16 16" enable-background="new -412 412.9 16 16" xml:space="preserve">
<path fill="#FFFFFF" d="M-398.5,423.9c-0.7,0-1.3,0.3-1.8,0.8l-6.7-3.4c0-0.1,0-0.3,0-0.4c0-0.1,0-0.3,0-0.4l6.7-3.4
	c0.5,0.5,1.1,0.8,1.8,0.8c1.4,0,2.5-1.1,2.5-2.5c0-1.4-1.1-2.5-2.5-2.5s-2.5,1.1-2.5,2.5c0,0.1,0,0.3,0,0.4l-6.7,3.4
	c-0.5-0.5-1.1-0.8-1.8-0.8c-1.4,0-2.5,1.1-2.5,2.5c0,1.4,1.1,2.5,2.5,2.5c0.7,0,1.3-0.3,1.8-0.8l6.7,3.4c0,0.1,0,0.3,0,0.4
	c0,1.4,1.1,2.5,2.5,2.5s2.5-1.1,2.5-2.5C-396,425-397.1,423.9-398.5,423.9z"/>
</svg>
